<?xml version="1.0" standalone="no"?>
<!DOCTYPE svg PUBLIC "-//W3C//DTD SVG 20010904//EN"
 "http://www.w3.org/TR/2001/REC-SVG-20010904/DTD/svg10.dtd">
<svg version="1.0" xmlns="http://www.w3.org/2000/svg"
 width="260.000000pt" height="260.000000pt" viewBox="0 0 260.000000 260.000000"
 preserveAspectRatio="xMidYMid meet">
<metadata>
Created by potrace 1.11, written by Peter Selinger 2001-2013
</metadata>
<g transform="translate(0.000000,260.000000) scale(0.100000,-0.100000)"
fill="#000000" stroke="none">
<path d="M1200 2265 c-36 -8 -94 -29 -128 -46 -69 -34 -181 -132 -237 -209
-81 -111 -159 -302 -190 -469 -19 -103 -19 -288 -1 -357 32 -122 103 -206 205
-245 47 -17 72 -20 151 -17 111 5 176 30 255 100 48 42 48 42 41 14 -4 -16 -9
-41 -13 -56 -5 -26 -15 -32 -128 -70 -188 -64 -282 -135 -322 -243 -19 -51
-16 -175 6 -223 42 -91 127 -155 237 -175 70 -13 189 3 261 36 97 44 197 159
242 279 10 28 94 409 186 846 91 437 169 803 171 813 5 16 -9 17 -190 17
l-195 0 -7 -45 c-3 -25 -9 -45 -13 -45 -3 1 -15 15 -26 33 -11 18 -36 40 -56
49 -50 25 -169 31 -249 13z m271 -184 c17 -17 29 -40 29 -55 0 -50 -133 -662
-153 -706 -60 -128 -212 -190 -282 -114 -56 61 -58 241 -6 448 33 130 107 294
162 360 81 96 191 126 250 67z m-236 -1329 c-37 -174 -89 -252 -170 -252 -51
0 -104 46 -105 90 -1 89 69 174 191 234 113 54 111 56 84 -72z"/>
</g>
</svg>
